<?xml version="1.0" encoding="utf-8"?>
<svg width="445" height="457" viewBox="0 0 445 457" fill="none" xmlns="http://www.w3.org/2000/svg">
  <defs>
    <linearGradient id="gradient_1" gradientUnits="userSpaceOnUse" x1="56.5" y1="0" x2="56.5" y2="113">
      <stop offset="0" stop-color="#FFFFFF" />
      <stop offset="0.995" stop-color="#6B8DD6" />
      <stop offset="1" stop-color="#8E37D7" stop-opacity="0.769" />
    </linearGradient>
    <radialGradient id="gradient_2" gradientUnits="userSpaceOnUse" cx="0" cy="0" r="1" gradientTransform="matrix(68.362 23.117 -185.18 547.622 6.729 27.556)">
      <stop offset="0.067" stop-color="#9168C0" />
      <stop offset="0.343" stop-color="#5684D1" />
      <stop offset="0.672" stop-color="#1BA1E3" />
    </radialGradient>
    <clipPath id="clip_path_3">
      <rect width="150" height="150" rx="30" />
    </clipPath>
    <filter color-interpolation-filters="sRGB" x="-119.69" y="-90.113" width="121.69" height="92.113" id="filter_4">
      <feFlood flood-opacity="0" result="BackgroundImageFix_1" />
      <feBlend mode="normal" in="SourceGraphic" in2="BackgroundImageFix_1" result="Shape_2" />
      <feGaussianBlur stdDeviation="29.268" />
    </filter>
    <linearGradient id="gradient_5" gradientUnits="userSpaceOnUse" x1="57" y1="0" x2="57" y2="114">
      <stop offset="0" stop-color="#FFFFFF" />
      <stop offset="1" stop-color="#B4E0FF" />
    </linearGradient>
    <linearGradient id="gradient_6" gradientUnits="userSpaceOnUse" x1="54" y1="0" x2="54" y2="108">
      <stop offset="0" stop-color="#FFFFFF" />
      <stop offset="1" stop-color="#FFB895" />
    </linearGradient>
  </defs>
  <g id="Group">
    <g transform="translate(45 57)">
      <path id="Oval" d="M0 200C0 89.543 89.543 0 200 0C310.457 0 400 89.543 400 200C400 310.457 310.457 400 200 400C89.543 400 0 310.457 0 200Z" />
      <path d="M200 0C89.543 0 0 89.543 0 200C0 310.457 89.543 400 200 400C310.457 400 400 310.457 400 200C400 89.543 310.457 0 200 0ZM16.638 277.459Q1 240.488 1.00003 200Q1 159.513 16.638 122.541Q31.7429 86.8286 59.2858 59.2858Q86.8289 31.7427 122.541 16.638Q159.513 1 200 1.00003Q240.487 1 277.459 16.638Q313.173 31.7434 340.714 59.2858Q368.258 86.8296 383.362 122.541Q399 159.512 399 200Q399 240.488 383.362 277.459Q368.258 313.172 340.714 340.714Q313.172 368.256 277.459 383.362Q240.488 399 200 399Q159.512 399 122.541 383.362Q86.8296 368.258 59.2858 340.714Q31.7439 313.173 16.638 277.459Z" fill="#A0A0A0" fill-rule="evenodd" />
    </g>
    <g id="Group" transform="translate(0 257)">
      <path id="Oval" d="M0 56.5C0 25.2959 25.2959 0 56.5 0C87.7041 0 113 25.2959 113 56.5C113 87.7041 87.7041 113 56.5 113C25.2959 113 0 87.7041 0 56.5Z" fill="url(#gradient_1)" fill-rule="evenodd" />
      <path id="Path" d="M67.8 33.9678C49.5977 35.0848 35.0848 49.5977 33.9678 67.8C33.9678 67.8 33.8322 67.8 33.8322 67.8C32.717 49.5969 18.2031 35.083 0 33.9678C0 33.9678 0 33.8322 0 33.8322C18.2031 32.717 32.717 18.2031 33.8322 0C33.8322 0 33.9678 0 33.9678 0C35.0848 18.2022 49.5977 32.7151 67.8 33.8322C67.8 33.8322 67.8 33.9678 67.8 33.9678C67.8 33.9678 67.8 33.9678 67.8 33.9678Z" fill="url(#gradient_2)" fill-rule="evenodd" transform="translate(22.6 22.6)" />
    </g>
    <g clip-path="url(#clip_path_3)" transform="translate(170 182)">
      <rect width="150" height="150" fill="#030303" fill-rule="evenodd" />
      <path id="Rectangle" d="M75.6338 0C101.073 0 121.69 20.6167 121.69 46.0563L121.69 46.0563C121.69 71.496 101.073 92.1127 75.6338 92.1127L46.0563 92.1127C20.6167 92.1127 0 71.496 0 46.0563L0 46.0563C0 20.6167 20.6167 0 46.0563 0L75.6338 0Z" fill="#4C4CEC" filter="url(#filter_4)" transform="translate(15 -46)" />
      <g transform="translate(25 25)">
        <path id="Oval" d="M0 50C0 22.3858 22.3858 0 50 0C77.6142 0 100 22.3858 100 50C100 77.6142 77.6142 100 50 100C22.3858 100 0 77.6142 0 50Z" />
        <path d="M50 0C22.3858 0 0 22.3858 0 50C0 77.6142 22.3858 100 50 100C77.6142 100 100 77.6142 100 50C100 22.3858 77.6142 0 50 0ZM15.3518 84.6482Q1 70.2964 1.00001 50Q0.999969 29.7035 15.3518 15.3518Q29.7035 1 50 1.00001Q70.2965 0.999969 84.6482 15.3518Q99 29.7036 99 50Q99 70.2965 84.6482 84.6482Q70.2964 99 50 99Q29.7036 99 15.3518 84.6482Z" fill="#FFFFFF" fill-rule="evenodd" fill-opacity="0.09" />
      </g>
      <path id="Path" d="M44.793 20.0898C44.793 20.0898 25.9102 1.20703 25.9102 1.20703C25.1094 0.402344 24.0547 0 23 0C21.9453 0 20.8906 0.402344 20.0898 1.20703C20.0898 1.20703 16.3555 4.94141 16.3555 4.94141C16.3555 4.94141 20.9766 9.5625 20.9766 9.5625C22.5117 8.66016 24.5117 8.85547 25.8281 10.1719C27.1445 11.4883 27.3359 13.4883 26.4336 15.0195C26.4336 15.0195 30.9766 19.5625 30.9766 19.5625C32.5117 18.6602 34.5117 18.8555 35.8281 20.1719C37.3906 21.7344 37.3906 24.2656 35.8281 25.8281C34.2656 27.3906 31.7344 27.3906 30.1719 25.8281C28.8555 24.5117 28.6602 22.5117 29.5625 20.9766C29.5625 20.9766 25.0195 16.4336 25.0195 16.4336C24.6953 16.625 24.3555 16.7656 24 16.8555C24 16.8555 24 29.1406 24 29.1406C25.7227 29.5859 27 31.1367 27 33C27 35.2109 25.2109 37 23 37C20.7891 37 19 35.2109 19 33C19 31.1367 20.2773 29.5859 22 29.1406C22 29.1406 22 16.8555 22 16.8555C21.332 16.6836 20.6953 16.3516 20.1719 15.8281C18.8555 14.5117 18.6641 12.5117 19.5664 10.9805C19.5664 10.9805 14.9414 6.35547 14.9414 6.35547C14.9414 6.35547 1.20703 20.0898 1.20703 20.0898C-0.402344 21.6953 -0.402344 24.3047 1.20703 25.9102C1.20703 25.9102 20.0898 44.793 20.0898 44.793C20.8906 45.5977 21.9453 46 23 46C24.0547 46 25.1094 45.5977 25.9102 44.793C25.9102 44.793 44.793 25.9102 44.793 25.9102C46.4023 24.3047 46.4023 21.6953 44.793 20.0898C44.793 20.0898 44.793 20.0898 44.793 20.0898Z" fill="#8686FF" fill-rule="evenodd" transform="translate(52 52)" />
      <path d="M150 30C150 13.4292 136.571 0 120 0L30 0C13.4292 0 0 13.4292 0 30L0 120C0 136.571 13.4292 150 30 150L120 150C136.571 150 150 136.571 150 120L150 30ZM30 1L120 1Q132.014 1 140.507 9.49306Q149 17.9863 149 30L149 120Q149 132.014 140.507 140.507Q132.014 149 120 149L30 149Q17.9861 149 9.49306 140.507Q0.999878 132.014 1 120L1 30Q0.999878 17.9861 9.49306 9.49306Q17.986 1 30 1Z" fill="#FFFFFF" fill-rule="evenodd" fill-opacity="0.298" />
    </g>
    <g id="Group" transform="translate(188 0)">
      <path id="Oval" d="M0 57C0 25.5198 25.5198 0 57 0C88.4802 0 114 25.5198 114 57C114 88.4802 88.4802 114 57 114C25.5198 114 0 88.4802 0 57Z" fill="url(#gradient_5)" fill-rule="evenodd" />
      <path id="Shape" d="M53.2424 23.3262C53.7303 21.8797 53.9791 20.3652 53.9794 18.8408C53.9794 16.3192 53.2985 13.8422 52.0068 11.6653C49.4109 7.20717 44.5955 4.45476 39.384 4.45476C38.3573 4.45477 37.3334 4.56176 36.3295 4.77394C33.5981 1.73772 29.6802 8.96454e-05 25.5656 0C25.5656 0 25.4742 0 25.4742 0C25.4742 0 25.4399 0.000198364 25.4399 0.000198364C19.1278 0.000198364 13.53 4.01878 11.5896 9.94307C7.52609 10.7642 4.01909 13.2749 1.96743 16.8317C0.679499 19.0216 0.000787735 21.5083 0 24.0402C0.00176239 27.6036 1.34172 31.0346 3.76042 33.674C3.27238 35.1205 3.02347 36.635 3.02326 38.1594C3.02326 40.6807 3.70406 43.1577 4.99569 45.3347C8.1477 50.7493 14.4841 53.5347 20.6722 52.2259C23.404 55.2621 27.3221 56.9998 31.437 57C31.437 57 31.525 57 31.525 57C31.525 57 31.5621 56.9998 31.5621 56.9998C37.8777 56.9998 43.4736 52.981 45.414 47.0514C49.4775 46.2299 52.9845 43.7192 55.0364 40.1626C56.3229 37.9746 57.0004 35.4899 57 32.9604C57 29.4041 55.6617 25.9725 53.2443 23.3319C53.2443 23.3319 53.2437 23.3311 53.2437 23.3311C53.2437 23.3311 53.2424 23.3262 53.2424 23.3262ZM31.5287 53.2702C31.5287 53.2702 31.5138 53.2702 31.5138 53.2702C28.9867 53.2693 26.5398 52.3946 24.5986 50.7981C24.7139 50.7369 24.8278 50.6732 24.9403 50.6071C24.9403 50.6071 36.4428 44.0518 36.4428 44.0518C37.0272 43.7236 37.3881 43.1113 37.3883 42.4479C37.3883 42.4479 37.3883 26.4375 37.3883 26.4375C37.3883 26.4375 42.2501 29.2072 42.2501 29.2072C42.302 29.2327 42.3374 29.2821 42.3447 29.3388C42.3447 29.3388 42.3447 42.5886 42.3447 42.5886C42.3381 48.4795 37.4998 53.2582 31.5288 53.2701C31.5288 53.2701 31.5287 53.2702 31.5287 53.2702ZM8.26822 43.4689C7.3181 41.848 6.81753 40.0088 6.81689 38.1364C6.81689 37.5257 6.87095 36.9134 6.97622 36.3117C7.06174 36.3622 7.21099 36.4521 7.31808 36.5128C7.31808 36.5128 18.8206 43.0681 18.8206 43.0681C19.4044 43.4044 20.1266 43.4043 20.7104 43.0677C20.7104 43.0677 34.7537 35.0674 34.7537 35.0674L34.7537 40.607C34.7537 40.607 34.7539 40.6166 34.7539 40.6166C34.7539 40.6706 34.7281 40.7216 34.6843 40.7541C34.6843 40.7541 23.0564 47.378 23.0564 47.378C21.4111 48.3123 19.5461 48.8042 17.6478 48.8047C13.7802 48.8042 10.206 46.7706 8.26824 43.4683C8.26824 43.4683 8.26824 43.4689 8.26824 43.4689C8.26824 43.4689 8.26822 43.4689 8.26822 43.4689ZM5.24217 18.693C6.50551 16.528 8.5003 14.8703 10.8774 14.01C10.8774 14.1077 10.8718 14.2808 10.8718 14.401C10.8718 14.401 10.8718 27.5118 10.8718 27.5118C10.8718 27.5118 10.8716 27.5225 10.8716 27.5225C10.8716 28.1849 11.2319 28.7967 11.8154 29.1249C11.8154 29.1249 25.8587 37.124 25.8587 37.124C25.8587 37.124 20.9971 39.8937 20.9971 39.8937C20.9484 39.9254 20.8869 39.9309 20.8332 39.9085C20.8332 39.9085 9.20401 33.2789 9.20401 33.2789C5.85829 31.3667 3.79829 27.8409 3.79785 24.026C3.7985 22.1549 4.29655 20.3162 5.2423 18.6938C5.2423 18.6938 5.2417 18.6932 5.2417 18.6932C5.2417 18.6932 5.24217 18.693 5.24217 18.693ZM45.1874 27.8644L31.144 19.8643C31.144 19.8643 36.0059 17.0956 36.0059 17.0956C36.0546 17.0638 36.1161 17.0583 36.1698 17.0808C36.1698 17.0808 47.7988 23.7048 47.7988 23.7048C51.1473 25.6141 53.2101 29.1401 53.211 32.9559C53.211 37.431 50.3807 41.4353 46.1252 42.9808C46.1252 42.9808 46.1252 29.478 46.1252 29.478C46.1258 29.473 46.1258 29.4679 46.1258 29.4629C46.1255 28.8023 45.7674 28.1927 45.187 27.8642C45.187 27.8642 45.1874 27.8644 45.1874 27.8644ZM50.0262 20.6785C49.9132 20.6102 49.7993 20.5432 49.6846 20.4776C49.6846 20.4776 38.1821 13.9221 38.1821 13.9221C37.8953 13.7572 37.5694 13.6703 37.2374 13.6702C36.9055 13.6703 36.5795 13.7572 36.2927 13.9221C36.2927 13.9221 22.2492 21.9224 22.2492 21.9224L22.2492 16.3828C22.2492 16.3828 22.249 16.3732 22.249 16.3732C22.249 16.3191 22.275 16.2682 22.3188 16.2357C22.3188 16.2357 33.9467 9.61735 33.9467 9.61735C35.5915 8.68181 37.4566 8.1893 39.3551 8.18921C45.3339 8.18921 50.1824 12.9729 50.1824 18.8717C50.1821 19.4773 50.1298 20.0815 50.0262 20.6781C50.0262 20.6781 50.0262 20.6787 50.0262 20.6787C50.0262 20.6787 50.0262 20.6785 50.0262 20.6785ZM19.6058 30.5522C19.6058 30.5522 14.743 27.7825 14.743 27.7825C14.6912 27.757 14.6557 27.7077 14.6484 27.651C14.6484 27.651 14.6484 14.4009 14.6484 14.4009C14.6511 8.50529 19.4996 3.72559 25.4757 3.72559C28.0067 3.7261 30.4578 4.60092 32.4034 6.19822C32.3158 6.24538 32.1631 6.32856 32.0617 6.38925C32.0617 6.38925 20.5592 12.9445 20.5592 12.9445C19.975 13.2725 19.6141 13.8846 19.6139 14.5478C19.6139 14.5478 19.6139 14.5583 19.6139 14.5583L19.6059 30.5523L19.6058 30.5522ZM22.2466 24.9344L28.5012 21.3701L34.7559 24.932L34.7559 32.0582L28.5012 35.6203L22.2466 32.0582L22.2466 24.9344L22.2466 24.9344Z" fill="#000000" transform="translate(28.5 28.5)" />
    </g>
    <g id="Group" transform="translate(337 324)">
      <path id="Oval" d="M0 54C0 24.1766 24.1766 0 54 0C83.8234 0 108 24.1766 108 54C108 83.8234 83.8234 108 54 108C24.1766 108 0 83.8234 0 54Z" fill="url(#gradient_6)" fill-rule="evenodd" />
      <path id="path147" d="M12.9233 43.8103L25.8867 36.5412L26.1047 35.9099L25.8867 35.5587L25.255 35.5587L23.0885 35.4253L15.6815 35.2252L9.25763 34.9585L3.03398 34.625L1.46806 34.2916L0 32.3576L0.151253 31.3928L1.46805 30.5081L3.35428 30.6726L7.52266 30.9571L13.7775 31.3884L18.3151 31.6551L25.037 32.3531L26.1047 32.3531L26.2559 31.9219L25.8911 31.6551L25.6064 31.3884L19.1336 27.0047L12.127 22.372L8.45686 19.7044L6.47276 18.3529L5.47182 17.0858L5.0403 14.3204L6.842 12.3375L9.26207 12.502L9.88043 12.6665L12.3316 14.5516L17.5677 18.6018L24.4053 23.6346L25.4062 24.466L25.8066 24.1815L25.8555 23.9814L25.4062 23.23L21.6871 16.5122L17.7189 9.67881L15.9528 6.84675C15.9528 6.84675 15.4857 5.1484 15.4857 5.1484C15.3211 4.45038 15.201 3.86352 15.201 3.14773C15.201 3.14773 17.2518 0.364571 17.2518 0.364571L18.3862 0L21.1222 0.364571L22.2744 1.36491L23.9737 5.25066L26.7275 11.3683L30.9982 19.6866L32.2482 22.1541L32.9155 24.4393L33.1647 25.1374L33.5962 25.1374L33.5962 24.7372L33.9476 20.0512L34.5971 14.2982L35.2288 6.89566L35.4468 4.81052L36.4789 2.3119L38.5297 0.960339L40.1312 1.72504L41.448 3.61012L41.2656 4.82831L40.4827 9.91447L38.9479 17.8816L37.947 23.2167L38.5297 23.2167L39.197 22.5498L41.8974 18.9664L46.435 13.2978L48.4369 11.0482L50.7724 8.56291L52.2716 7.38029L55.1054 7.38029L57.1918 10.4791L56.2576 13.6802L53.3393 17.3792L50.9192 20.5136L47.4493 25.1818L45.2828 28.9164L45.483 29.2143L45.999 29.1654L53.8375 27.4982L58.0726 26.7335L63.1263 25.8665L65.4129 26.9335L65.662 28.0183L64.7634 30.2369L59.3583 31.5706L53.019 32.8377L43.5789 35.0696L43.4633 35.1541L43.5967 35.3186L47.8496 35.7187L49.6691 35.8165L54.1222 35.8165L62.4145 36.4345L64.581 37.8661L65.88 39.6178L65.662 40.9516L62.3255 42.6499L57.8235 41.5829L47.3158 39.0843L43.7124 38.1862L43.2141 38.1862L43.2141 38.4841L46.217 41.4184L51.72 46.3845L58.6109 52.7867L58.9624 54.3694L58.0771 55.6188L57.1429 55.4854L51.0882 50.9327L48.7527 48.8832L43.4633 44.4328L43.1118 44.4328L43.1118 44.8996L44.3308 46.6824L50.7679 56.3523L51.1016 59.3178L50.6345 60.2826L48.9662 60.865L47.1334 60.5315L43.3654 55.2453L39.4773 49.2922L36.341 43.9571L35.9584 44.1749L34.1078 64.0972L33.2403 65.1153L31.2384 65.88L29.5701 64.6129L28.6849 62.5633L29.5701 58.5131L30.6378 53.2269L31.5053 49.0254L32.2883 43.8059L32.7554 42.072L32.7242 41.9564L32.3416 42.0053L28.4046 47.4071L22.4167 55.4943L17.6789 60.5626L16.5445 61.0117L14.5782 59.9936L14.7606 58.1752L15.8594 56.5568L22.4167 48.2207L26.3716 43.0545L28.9251 40.0713L28.9073 39.64L28.756 39.64L11.3396 50.9416L8.23888 51.3418L6.90429 50.0925L7.06889 48.0429L7.70059 47.376L12.9367 43.7748L12.9189 43.7926L12.9233 43.8103Z" fill="#D97757" fill-rule="evenodd" transform="translate(21.6 21.6)" />
    </g>
  </g>
</svg>