<?xml version="1.0" encoding="utf-8"?>
<svg width="162" height="162" viewBox="0 0 162 162" fill="none" xmlns="http://www.w3.org/2000/svg">
  <defs>
    <clipPath id="clip_path_1">
      <rect width="150" height="150" rx="30" />
    </clipPath>
    <filter color-interpolation-filters="sRGB" x="-119.69" y="-90.113" width="121.69" height="92.113" id="filter_2">
      <feFlood flood-opacity="0" result="BackgroundImageFix_1" />
      <feBlend mode="normal" in="SourceGraphic" in2="BackgroundImageFix_1" result="Shape_2" />
      <feGaussianBlur stdDeviation="29.268" />
    </filter>
  </defs>
  <g clip-path="url(#clip_path_1)" transform="translate(6 2)">
    <rect width="150" height="150" fill="#030303" fill-rule="evenodd" />
    <path id="Rectangle" d="M75.6338 0C101.073 0 121.69 20.6167 121.69 46.0563L121.69 46.0563C121.69 71.496 101.073 92.1127 75.6338 92.1127L46.0563 92.1127C20.6167 92.1127 0 71.496 0 46.0563L0 46.0563C0 20.6167 20.6167 0 46.0563 0L75.6338 0Z" fill="#4C4CEC" filter="url(#filter_2)" transform="translate(15 -46)" />
    <g transform="translate(25 25)">
      <path id="Oval" d="M0 50C0 22.3858 22.3858 0 50 0C77.6142 0 100 22.3858 100 50C100 77.6142 77.6142 100 50 100C22.3858 100 0 77.6142 0 50Z" />
      <path d="M50 0C22.3858 0 0 22.3858 0 50C0 77.6142 22.3858 100 50 100C77.6142 100 100 77.6142 100 50C100 22.3858 77.6142 0 50 0ZM15.3518 84.6482Q1 70.2964 1.00001 50Q0.999969 29.7035 15.3518 15.3518Q29.7035 1 50 1.00001Q70.2965 0.999969 84.6482 15.3518Q99 29.7036 99 50Q99 70.2965 84.6482 84.6482Q70.2964 99 50 99Q29.7036 99 15.3518 84.6482Z" fill="#FFFFFF" fill-rule="evenodd" fill-opacity="0.102" />
    </g>
    <path id="Path" d="M44.793 20.0898C44.793 20.0898 25.9102 1.20703 25.9102 1.20703C25.1094 0.402344 24.0547 0 23 0C21.9453 0 20.8906 0.402344 20.0898 1.20703C20.0898 1.20703 16.3555 4.94141 16.3555 4.94141C16.3555 4.94141 20.9766 9.5625 20.9766 9.5625C22.5117 8.66016 24.5117 8.85547 25.8281 10.1719C27.1445 11.4883 27.3359 13.4883 26.4336 15.0195C26.4336 15.0195 30.9766 19.5625 30.9766 19.5625C32.5117 18.6602 34.5117 18.8555 35.8281 20.1719C37.3906 21.7344 37.3906 24.2656 35.8281 25.8281C34.2656 27.3906 31.7344 27.3906 30.1719 25.8281C28.8555 24.5117 28.6602 22.5117 29.5625 20.9766C29.5625 20.9766 25.0195 16.4336 25.0195 16.4336C24.6953 16.625 24.3555 16.7656 24 16.8555C24 16.8555 24 29.1406 24 29.1406C25.7227 29.5859 27 31.1367 27 33C27 35.2109 25.2109 37 23 37C20.7891 37 19 35.2109 19 33C19 31.1367 20.2773 29.5859 22 29.1406C22 29.1406 22 16.8555 22 16.8555C21.332 16.6836 20.6953 16.3516 20.1719 15.8281C18.8555 14.5117 18.6641 12.5117 19.5664 10.9805C19.5664 10.9805 14.9414 6.35547 14.9414 6.35547C14.9414 6.35547 1.20703 20.0898 1.20703 20.0898C-0.402344 21.6953 -0.402344 24.3047 1.20703 25.9102C1.20703 25.9102 20.0898 44.793 20.0898 44.793C20.8906 45.5977 21.9453 46 23 46C24.0547 46 25.1094 45.5977 25.9102 44.793C25.9102 44.793 44.793 25.9102 44.793 25.9102C46.4023 24.3047 46.4023 21.6953 44.793 20.0898C44.793 20.0898 44.793 20.0898 44.793 20.0898Z" fill="#8686FF" transform="translate(52 52)" />
    <path d="M150 30C150 13.4292 136.571 0 120 0L30 0C13.4292 0 0 13.4292 0 30L0 120C0 136.571 13.4292 150 30 150L120 150C136.571 150 150 136.571 150 120L150 30ZM30 1L120 1Q132.012 1 140.507 9.49316Q149 17.9844 149 30L149 120Q149 132.012 140.507 140.507Q132.014 149 120 149L30 149Q17.9863 149 9.49292 140.507Q1 132.012 1 120L1 30Q1 17.9844 9.49292 9.49316Q17.9863 1 30 1Z" fill="#FFFFFF" fill-rule="evenodd" fill-opacity="0.298" />
  </g>
</svg>