<?xml version="1.0" encoding="utf-8"?>
<svg width="842.487" height="206" viewBox="0 0 842.487 206" fill="none" xmlns="http://www.w3.org/2000/svg">
  <defs>
    <radialGradient id="gradient_1" gradientUnits="userSpaceOnUse" cx="0" cy="0" r="1" gradientTransform="matrix(124.617 42.142 -337.602 998.306 12.267 50.236)">
      <stop offset="0.067" stop-color="#9168C0" />
      <stop offset="0.343" stop-color="#5684D1" />
      <stop offset="0.672" stop-color="#1BA1E3" />
    </radialGradient>
  </defs>
  <g id="Group">
    <g id="Group" transform="translate(205.987 0)">
      <path id="Oval" d="M0 103C0 46.1147 46.1118 0 102.994 0C159.875 0 205.987 46.1147 205.987 103C205.987 159.885 159.875 206 102.994 206C46.1118 206 0 159.885 0 103Z" fill="#DDDDDD" fill-rule="evenodd" />
      <path id="Shape" d="M96.204 42.1508C97.0855 39.537 97.5351 36.8003 97.5356 34.0456C97.5356 29.4892 96.3054 25.0131 93.9713 21.0794C89.2808 13.0235 80.5798 8.04983 71.1631 8.04983C69.3079 8.04985 67.4579 8.24318 65.6439 8.62659C60.7085 3.14009 53.6293 0.000160217 46.1945 0C46.1945 0 46.0294 0 46.0294 0C46.0294 0 45.9675 0.000358582 45.9675 0.000358582C34.5621 0.000358582 24.4474 7.262 20.9413 17.9673C13.5989 19.4511 7.2621 23.988 3.55497 30.4151C1.22779 34.3723 0.00142288 38.8659 0 43.4411C0.00318527 49.8801 2.42437 56.0801 6.79471 60.8496C5.91287 63.4633 5.46312 66.2 5.46274 68.9548C5.46274 73.5107 6.69289 77.9868 9.02674 81.9206C14.7221 91.7049 26.1713 96.7381 37.3527 94.373C42.2887 99.8596 49.3683 103 56.8036 103C56.8036 103 56.9627 103 56.9627 103C56.9627 103 57.0298 103 57.0298 103C68.4413 103 78.5527 95.7376 82.0588 85.0226C89.4012 83.5383 95.7379 79.0014 99.4455 72.5745C101.77 68.6207 102.994 64.1309 102.994 59.56C102.994 53.1337 100.575 46.9327 96.2074 42.1612C96.2074 42.1612 96.2063 42.1598 96.2063 42.1598C96.2063 42.1598 96.204 42.1508 96.204 42.1508ZM56.9692 96.2604C56.9692 96.2604 56.9422 96.2604 56.9422 96.2604C52.3759 96.2589 47.9546 94.6783 44.4471 91.7934C44.6555 91.6827 44.8613 91.5676 45.0646 91.4481C45.0646 91.4481 65.8485 79.6026 65.8485 79.6026C66.9043 79.0096 67.5565 77.9032 67.5569 76.7044C67.5569 76.7044 67.5569 47.7733 67.5569 47.7733C67.5569 47.7733 76.3417 52.7782 76.3417 52.7782C76.4354 52.8243 76.4995 52.9135 76.5126 53.0159C76.5126 53.0159 76.5126 76.9586 76.5126 76.9586C76.5006 87.6035 67.7584 96.2387 56.9692 96.2603C56.9692 96.2603 56.9692 96.2604 56.9692 96.2604ZM14.9404 78.5488C13.2236 75.6199 12.3191 72.2964 12.318 68.9129C12.318 67.8093 12.4157 66.7029 12.6059 65.6156C12.7604 65.7069 13.0301 65.8694 13.2236 65.9791C13.2236 65.9791 34.0075 77.8246 34.0075 77.8246C35.0624 78.4323 36.3674 78.432 37.4221 77.8239C37.4221 77.8239 62.797 63.3671 62.797 63.3671L62.797 73.3774C62.797 73.3774 62.7974 73.3946 62.7974 73.3946C62.7975 73.4923 62.7509 73.5843 62.6717 73.6431C62.6717 73.6431 41.6612 85.6126 41.6612 85.6126C38.6883 87.3008 35.3185 88.1898 31.8884 88.1908C24.9001 88.1898 18.4417 84.5151 14.9404 78.5477C14.9404 78.5477 14.9404 78.5487 14.9404 78.5487C14.9404 78.5487 14.9404 78.5488 14.9404 78.5488ZM9.4723 33.7787C11.755 29.8665 15.3594 26.871 19.6547 25.3165C19.6547 25.493 19.6445 25.8059 19.6445 26.023C19.6445 26.023 19.6445 49.7144 19.6445 49.7144C19.6445 49.7144 19.6441 49.7338 19.6441 49.7338C19.6441 50.9308 20.2951 52.0363 21.3495 52.6293C21.3495 52.6293 46.7244 67.0839 46.7244 67.0839C46.7244 67.0839 37.94 72.0888 37.94 72.0888C37.852 72.1461 37.7407 72.156 37.6437 72.1154C37.6437 72.1154 16.631 60.1358 16.631 60.1358C10.5856 56.6803 6.86334 50.3091 6.86255 43.4155C6.86373 40.0343 7.76365 36.7118 9.47253 33.7802C9.47253 33.7802 9.47144 33.7792 9.47144 33.7792C9.47144 33.7792 9.4723 33.7787 9.4723 33.7787ZM81.6492 50.3515L56.2743 35.8951C56.2743 35.8951 65.0591 30.892 65.0591 30.892C65.1471 30.8347 65.2584 30.8247 65.3554 30.8654C65.3554 30.8654 86.3678 42.835 86.3678 42.835C92.4184 46.2852 96.1456 52.6567 96.1471 59.552C96.1471 67.6385 91.0332 74.8743 83.3438 77.6671C83.3438 77.6671 83.3438 53.2673 83.3438 53.2673C83.3449 53.2583 83.3449 53.249 83.3449 53.24C83.3443 52.0464 82.6973 50.9448 81.6486 50.3512C81.6486 50.3512 81.6492 50.3515 81.6492 50.3515ZM90.3925 37.3666C90.1882 37.2431 89.9824 37.1221 89.7751 37.0035C89.7751 37.0035 68.9912 25.1576 68.9912 25.1576C68.473 24.8596 67.884 24.7026 67.2843 24.7024C66.6845 24.7026 66.0955 24.8596 65.5773 25.1576C65.5773 25.1576 40.202 39.6143 40.202 39.6143L40.202 29.6041C40.202 29.6041 40.2017 29.5868 40.2017 29.5868C40.2017 29.489 40.2487 29.397 40.3278 29.3384C40.3278 29.3384 61.3383 17.3789 61.3383 17.3789C64.3102 15.6883 67.6803 14.7984 71.1107 14.7982C81.9138 14.7982 90.6745 23.4424 90.6745 34.1017C90.674 35.1959 90.5796 36.2878 90.3924 37.3659C90.3924 37.3659 90.3924 37.367 90.3924 37.367C90.3924 37.367 90.3925 37.3666 90.3925 37.3666ZM35.4261 55.2085C35.4261 55.2085 26.6394 50.2035 26.6394 50.2035C26.5458 50.1575 26.4817 50.0683 26.4685 49.9658C26.4685 49.9658 26.4685 26.0228 26.4685 26.0228C26.4733 15.3692 35.2341 6.73222 46.0323 6.73222C50.6057 6.73315 55.0345 8.31396 58.55 11.2003C58.3918 11.2855 58.1159 11.4358 57.9326 11.5455C57.9326 11.5455 37.1487 23.391 37.1487 23.391C36.0931 23.9836 35.4409 25.0897 35.4407 26.2881C35.4407 26.2881 35.4407 26.3072 35.4407 26.3072L35.4261 55.2085L35.4261 55.2085ZM40.1977 45.0567L51.4992 38.616L62.8007 45.0524L62.8007 57.9295L51.4992 64.3663L40.1977 57.9295L40.1977 45.0567L40.1977 45.0567Z" fill="#000000" transform="translate(51.497 51.5)" />
    </g>
    <g id="Group">
      <path id="Oval" d="M0 103C0 46.1147 46.1118 0 102.994 0C159.875 0 205.987 46.1147 205.987 103C205.987 159.885 159.875 206 102.994 206C46.1118 206 0 159.885 0 103Z" fill="#DDDDDD" fill-rule="evenodd" />
      <path id="Path" d="M123.592 61.9236C90.4114 63.96 63.956 90.4171 61.9197 123.6C61.9197 123.6 61.6725 123.6 61.6725 123.6C59.6396 90.4156 33.1823 63.9566 0 61.9236C0 61.9236 0 61.6764 0 61.6764C33.1823 59.6434 59.6397 33.1844 61.6725 0C61.6725 0 61.9197 0 61.9197 0C63.9559 33.1828 90.4114 59.64 123.592 61.6764C123.592 61.6764 123.592 61.9236 123.592 61.9236C123.592 61.9236 123.592 61.9236 123.592 61.9236Z" fill="url(#gradient_1)" transform="translate(41.197 41.2)" />
    </g>
    <g id="Group" transform="translate(636.5 0)">
      <path id="Oval" d="M0 103C0 46.1147 46.1118 0 102.994 0C159.875 0 205.987 46.1147 205.987 103C205.987 159.885 159.875 206 102.994 206C46.1118 206 0 159.885 0 103Z" fill="#DDDDDD" fill-rule="evenodd" />
      <path id="Path" d="M118.343 53.0809C118.343 53.0809 68.4548 3.18919 68.4548 3.18919C66.3392 1.06306 63.5527 0 60.7662 0C57.9797 0 55.1932 1.06306 53.0775 3.18919C53.0775 3.18919 43.2113 13.0561 43.2113 13.0561C43.2113 13.0561 55.4202 25.2658 55.4202 25.2658C59.4761 22.8816 64.7602 23.3977 68.2381 26.8759C71.7161 30.354 72.2218 35.6384 69.8378 39.6842C69.8378 39.6842 81.8403 51.6875 81.8403 51.6875C85.8962 49.3034 91.1802 49.8194 94.6582 53.2976C98.7863 57.426 98.7863 64.114 94.6582 68.2424C90.5301 72.3708 83.8425 72.3708 79.7143 68.2424C76.2364 64.7642 75.7204 59.4799 78.1044 55.4237C78.1044 55.4237 66.1018 43.4204 66.1018 43.4204C65.2452 43.9261 64.3474 44.2977 63.4082 44.5351C63.4082 44.5351 63.4082 76.9946 63.4082 76.9946C67.9595 78.1712 71.3342 82.2686 71.3342 87.1917C71.3342 93.0334 66.6075 97.7604 60.7662 97.7604C54.9249 97.7604 50.1982 93.0334 50.1982 87.1917C50.1982 82.2686 53.5729 78.1712 58.1242 76.9946C58.1242 76.9946 58.1242 44.5351 58.1242 44.5351C56.3594 44.081 54.6772 43.2037 53.2943 41.8207C49.8163 38.3425 49.3106 33.0581 51.6946 29.0123C51.6946 29.0123 39.4753 16.7923 39.4753 16.7923C39.4753 16.7923 3.18899 53.0809 3.18899 53.0809C-1.063 57.3228 -1.063 64.2172 3.18899 68.4591C3.18899 68.4591 53.0775 118.351 53.0775 118.351C55.1932 120.477 57.9797 121.54 60.7662 121.54C63.5527 121.54 66.3392 120.477 68.4548 118.351C68.4548 118.351 118.343 68.4591 118.343 68.4591C122.595 64.2172 122.595 57.3228 118.343 53.0809C118.343 53.0809 118.343 53.0809 118.343 53.0809Z" fill="#8686FF" fill-rule="evenodd" transform="translate(43.257 43.26)" />
    </g>
    <g id="Group" transform="translate(102.994 0)">
      <path id="Oval" d="M0 103C0 46.1147 46.1118 0 102.994 0C159.875 0 205.987 46.1147 205.987 103C205.987 159.885 159.875 206 102.994 206C46.1118 206 0 159.885 0 103Z" fill="#DDDDDD" fill-rule="evenodd" />
      <path id="path147" d="M24.6485 83.5642L49.3733 69.699L49.7891 68.4948L49.3733 67.8249L48.1685 67.8249L44.0364 67.5705L29.9091 67.1888L17.657 66.68L5.78667 66.044L2.8 65.408L0 61.7191L0.288483 59.8789L2.8 58.1913L6.39757 58.5051L14.3479 59.0478L26.2776 59.8704L34.9321 60.3792L47.7527 61.7106L49.7891 61.7106L50.0776 60.888L49.3818 60.3792L48.8388 59.8704L36.4933 51.5089L23.1297 42.6725L16.1297 37.5844L12.3454 35.0064L10.4363 32.5895L9.6133 27.3148L13.0497 23.5326L17.6654 23.8464L18.8448 24.1602L23.52 27.7558L33.5066 35.4812L46.5479 45.0809L48.4569 46.6667L49.2206 46.1239L49.3139 45.7423L48.4569 44.3091L41.3636 31.4955L33.7951 18.4614L30.4266 13.0595C30.4266 13.0595 29.5357 9.8201 29.5357 9.8201C29.2218 8.4887 28.9927 7.36931 28.9927 6.004C28.9927 6.004 32.9042 0.695385 32.9042 0.695385L35.0679 0L40.286 0.695385L42.4836 2.60344L45.7248 10.0152L50.9769 21.6839L59.1224 37.5504L61.5066 42.2569L62.7794 46.6158L63.2545 47.9472L64.0776 47.9472L64.0776 47.184L64.7478 38.2458L65.9866 27.2724L67.1915 13.1528L67.6073 9.17562L69.5757 4.40974L73.4873 1.83176L76.5418 3.29036L79.0533 6.88597L78.7055 9.20956L77.2121 18.9109L74.2849 34.1075L72.3758 44.2838L73.4873 44.2838L74.76 43.0117L79.9103 36.1767L88.5649 25.3644L92.383 21.0734L96.8376 16.333L99.697 14.0772L105.102 14.0772L109.081 19.9879L107.299 26.0937L101.733 33.1492L97.1176 39.1278L90.4994 48.032L86.3673 55.1554L86.7491 55.7236L87.7333 55.6303L102.684 52.4502L110.761 50.9916L120.4 49.338L124.761 51.3732L125.236 53.4424L123.522 57.674L113.213 60.2181L101.122 62.6349L83.1176 66.892L82.897 67.0531L83.1515 67.3669L91.263 68.1301L94.7333 68.3167L103.227 68.3167L119.042 69.4954L123.175 72.2261L125.652 75.5673L125.236 78.1113L118.873 81.3508L110.286 79.3155L90.2448 74.5497L83.3721 72.8367L82.4218 72.8367L82.4218 73.4048L88.1491 79.0018L98.6448 88.4742L111.788 100.686L112.458 103.705L110.77 106.088L108.988 105.833L97.44 97.1495L92.9854 93.2401L82.8969 84.7514L82.2266 84.7514L82.2266 85.6418L84.5515 89.0424L96.8291 107.487L97.4654 113.143L96.5745 114.983L93.3927 116.094L89.897 115.458L82.7103 105.375L75.2945 94.0203L69.3127 83.844L68.583 84.2595L65.0533 122.259L63.3988 124.201L59.5806 125.66L56.3988 123.243L54.7103 119.334L56.3988 111.608L58.4351 101.525L60.0897 93.5115L61.583 83.5557L62.4739 80.2484L62.4145 80.0279L61.6848 80.1212L54.1757 90.4247L42.7551 105.85L33.7187 115.518L31.5551 116.374L27.8048 114.432L28.1527 110.964L30.2484 107.877L42.7551 91.9765L50.2981 82.1225L55.1685 76.4323L55.1345 75.6097L54.846 75.6097L21.6279 97.1664L15.7139 97.9297L13.1685 95.5467L13.4824 91.6373L14.6872 90.3653L24.6739 83.4963L24.64 83.5303L24.6485 83.5642Z" fill="#D97757" transform="translate(41.197 41.2)" />
    </g>
    <g id="Group" transform="translate(438.752 98.88)">
      <line id="Line" x1="0" y1="0" x2="53.392" y2="0" fill="none" stroke-width="2" stroke="#BDBDBD" stroke-linecap="square" transform="translate(61.796 0)" />
      <line id="Line" x1="0" y1="0" x2="53.392" y2="0" fill="none" stroke-width="2" stroke="#BDBDBD" stroke-linecap="square" />
      <line id="Line" x1="0" y1="0" x2="53.392" y2="0" fill="none" stroke-width="2" stroke="#BDBDBD" stroke-linecap="square" transform="translate(123.592 0)" />
    </g>
  </g>
</svg>