<?xml version="1.0" encoding="utf-8"?>
<svg width="353" height="330" viewBox="0 0 353 330" fill="none" xmlns="http://www.w3.org/2000/svg">
  <defs>
    <radialGradient id="gradient_1" gradientUnits="userSpaceOnUse" cx="0" cy="0" r="1" gradientTransform="matrix(60.497 20.457 -163.876 484.621 5.955 24.386)">
      <stop offset="0.067" stop-color="#9168C0" />
      <stop offset="0.343" stop-color="#5684D1" />
      <stop offset="0.672" stop-color="#1BA1E3" />
    </radialGradient>
  </defs>
  <g id="Group" transform="translate(12 4)">
    <g id="Group" transform="translate(229 206)">
      <path id="Oval" d="M0 50C0 22.3858 22.3858 0 50 0C77.6142 0 100 22.3858 100 50C100 77.6142 77.6142 100 50 100C22.3858 100 0 77.6142 0 50Z" fill="#DDDDDD" fill-rule="evenodd" />
      <path id="Shape" d="M46.7039 20.4616C47.1318 19.1927 47.3501 17.8642 47.3503 16.527C47.3503 14.3151 46.7531 12.1423 45.62 10.2327C43.3429 6.32208 39.1189 3.90768 34.5473 3.90768C33.6467 3.90769 32.7486 4.00154 31.8679 4.18766C29.472 1.52432 26.0353 7.82013e-05 22.4259 0C22.4259 0 22.3458 0 22.3458 0C22.3458 0 22.3157 0.000173569 22.3157 0.000173569C16.7787 0.000173569 11.8684 3.52524 10.1663 8.72199C6.60183 9.4423 3.52551 11.6447 1.72582 14.7646C0.59605 16.6856 0.00069046 18.867 0 21.0879C0.00154495 24.2136 1.17695 27.2233 3.29861 29.5386C2.8705 30.8074 2.65216 32.1359 2.65198 33.4732C2.65198 35.6848 3.24918 37.8577 4.38219 39.7673C7.1471 44.5169 12.7053 46.9603 18.1335 45.8122C20.5298 48.4755 23.9667 49.9998 27.5763 50C27.5763 50 27.6535 50 27.6535 50C27.6535 50 27.6861 49.9998 27.6861 49.9998C33.226 49.9998 38.1348 46.4746 39.8369 41.2731C43.4013 40.5526 46.4776 38.3502 48.2775 35.2303C49.4061 33.311 50.0003 31.1315 50 28.9126C50 25.7931 48.8261 22.7829 46.7056 20.4666C46.7056 20.4666 46.705 20.4659 46.705 20.4659C46.705 20.4659 46.7039 20.4616 46.7039 20.4616ZM27.6567 46.7283C27.6567 46.7283 27.6436 46.7283 27.6436 46.7283C25.4268 46.7276 23.2804 45.9603 21.5776 44.5599C21.6788 44.5062 21.7787 44.4503 21.8774 44.3923C21.8774 44.3923 31.9673 38.642 31.9673 38.642C32.4798 38.3542 32.7965 37.8171 32.7967 37.2352C32.7967 37.2352 32.7967 23.1909 32.7967 23.1909C32.7967 23.1909 37.0614 25.6205 37.0614 25.6205C37.1069 25.6429 37.138 25.6862 37.1444 25.7359C37.1444 25.7359 37.1444 37.3586 37.1444 37.3586C37.1385 42.526 32.8945 46.7178 27.6567 46.7283C27.6567 46.7283 27.6567 46.7283 27.6567 46.7283ZM7.25307 38.1305C6.41963 36.7087 5.98054 35.0953 5.97998 33.4529C5.97998 32.9172 6.0274 32.3801 6.11974 31.8522C6.19476 31.8966 6.32567 31.9754 6.41962 32.0287C6.41962 32.0287 16.5095 37.7789 16.5095 37.7789C17.0217 38.0739 17.6552 38.0738 18.1672 37.7786C18.1672 37.7786 30.4859 30.7607 30.4859 30.7607L30.4859 35.6201C30.4859 35.6201 30.4861 35.6285 30.4861 35.6285C30.4861 35.6759 30.4635 35.7206 30.4251 35.7491C30.4251 35.7491 20.2251 41.5595 20.2251 41.5595C18.7819 42.3791 17.146 42.8106 15.4808 42.8111C12.0882 42.8106 8.95285 41.0267 7.25309 38.1299C7.25309 38.1299 7.25309 38.1305 7.25309 38.1305C7.25309 38.1305 7.25307 38.1305 7.25307 38.1305ZM4.59849 16.3974C5.70668 14.4983 7.4565 13.0442 9.54171 12.2896C9.54171 12.3753 9.53676 12.5271 9.53676 12.6325C9.53676 12.6325 9.53676 24.1332 9.53676 24.1332C9.53676 24.1332 9.53658 24.1426 9.53658 24.1426C9.53658 24.7237 9.85262 25.2603 10.3645 25.5482C10.3645 25.5482 22.6832 32.565 22.6832 32.565C22.6832 32.565 18.4186 34.9946 18.4186 34.9946C18.3759 35.0224 18.3219 35.0272 18.2748 35.0075C18.2748 35.0075 8.07378 29.1921 8.07378 29.1921C5.13895 27.5147 3.33193 24.4219 3.33154 21.0755C3.33212 19.4341 3.769 17.8213 4.59861 16.3982C4.59861 16.3982 4.59807 16.3977 4.59807 16.3977C4.59807 16.3977 4.59849 16.3974 4.59849 16.3974ZM39.638 24.4425L27.3193 17.4248C27.3193 17.4248 31.5841 14.9961 31.5841 14.9961C31.6268 14.9683 31.6808 14.9634 31.7279 14.9832C31.7279 14.9832 41.9287 20.7937 41.9287 20.7937C44.8661 22.4685 46.6756 25.5615 46.6763 28.9087C46.6763 32.8342 44.1936 36.3467 40.4607 37.7025C40.4607 37.7025 40.4607 25.8579 40.4607 25.8579C40.4612 25.8536 40.4612 25.849 40.4612 25.8447C40.4609 25.2652 40.1468 24.7305 39.6377 24.4423C39.6377 24.4423 39.638 24.4425 39.638 24.4425ZM43.8826 18.1391C43.7834 18.0792 43.6835 18.0204 43.5829 17.9628C43.5829 17.9628 33.493 12.2124 33.493 12.2124C33.2414 12.0678 32.9555 11.9915 32.6643 11.9914C32.3732 11.9915 32.0872 12.0678 31.8356 12.2124C31.8356 12.2124 19.5168 19.2303 19.5168 19.2303L19.5168 14.3709C19.5168 14.3709 19.5166 14.3625 19.5166 14.3625C19.5166 14.3151 19.5394 14.2704 19.5778 14.2419C19.5778 14.2419 29.7778 8.43635 29.7778 8.43635C31.2205 7.6157 32.8566 7.18368 34.5219 7.18359C39.7665 7.18359 44.0195 11.3798 44.0195 16.5542C44.0193 17.0854 43.9734 17.6154 43.8826 18.1388C43.8826 18.1388 43.8826 18.1393 43.8826 18.1393C43.8826 18.1393 43.8826 18.1391 43.8826 18.1391ZM17.1982 26.8002C17.1982 26.8002 12.9326 24.3706 12.9326 24.3706C12.8871 24.3483 12.856 24.305 12.8496 24.2553C12.8496 24.2553 12.8496 12.6324 12.8496 12.6324C12.8519 7.46079 17.105 3.26807 22.3472 3.26807C24.5674 3.26852 26.7174 4.03591 28.4241 5.43705C28.3473 5.47841 28.2134 5.55138 28.1244 5.60462C28.1244 5.60462 18.0345 11.3549 18.0345 11.3549C17.522 11.6425 17.2054 12.1795 17.2053 12.7612C17.2053 12.7612 17.2053 12.7705 17.2053 12.7705L17.1982 26.8002L17.1982 26.8002ZM19.5146 21.8722L25.0012 18.7456L30.4877 21.8701L30.4877 28.1211L25.0012 31.2458L19.5146 28.1211L19.5146 21.8722L19.5146 21.8722Z" fill="#000000" transform="translate(25 25)" />
    </g>
    <g id="Group" transform="translate(0 206)">
      <path id="Oval" d="M0 50C0 22.3858 22.3858 0 50 0C77.6142 0 100 22.3858 100 50C100 77.6142 77.6142 100 50 100C22.3858 100 0 77.6142 0 50Z" fill="#DDDDDD" fill-rule="evenodd" />
      <path id="Path" d="M60 30.06C43.8918 31.0485 31.0485 43.8918 30.06 60C30.06 60 29.94 60 29.94 60C28.9531 43.8911 16.1089 31.0469 0 30.06C0 30.06 0 29.94 0 29.94C16.1089 28.9531 28.9531 16.1089 29.94 0C29.94 0 30.06 0 30.06 0C31.0485 16.1082 43.8918 28.9515 60 29.94C60 29.94 60 30.06 60 30.06C60 30.06 60 30.06 60 30.06Z" fill="url(#gradient_1)" transform="translate(20 20)" />
    </g>
    <g id="Group" transform="translate(113 206)">
      <path id="Oval" d="M0 50C0 22.3858 22.3858 0 50 0C77.6142 0 100 22.3858 100 50C100 77.6142 77.6142 100 50 100C22.3858 100 0 77.6142 0 50Z" fill="#DDDDDD" fill-rule="evenodd" />
      <path id="path147" d="M11.966 40.5651L23.9691 33.8345L24.171 33.2499L23.9691 32.9247L23.3842 32.9247L21.3782 32.8012L14.5199 32.6159L8.57188 32.3689L2.80924 32.0602L1.35931 31.7514L0 29.9607L0.140049 29.0674L1.35931 28.2482L3.10581 28.4005L6.96543 28.664L12.7569 29.0633L16.9584 29.3103L23.1824 29.9566L24.171 29.9566L24.311 29.5573L23.9732 29.3103L23.7096 29.0633L17.7163 25.0043L11.2287 20.7148L7.83043 18.2448L5.9933 16.9934L5.0665 15.8202L4.66694 13.2596L6.33519 11.4236L8.57599 11.5759L9.14855 11.7282L11.4182 13.4737L16.2664 17.2239L22.5975 21.8839L23.5243 22.6537L23.895 22.3903L23.9403 22.205L23.5243 21.5093L20.0807 15.2891L16.4064 8.96187L14.7711 6.33959C14.7711 6.33959 14.3386 4.76704 14.3386 4.76704C14.1862 4.12073 14.075 3.57734 14.075 2.91456C14.075 2.91456 15.9739 0.337564 15.9739 0.337564L17.0243 0L19.5576 0.337564L20.6244 1.2638L22.1979 4.86172L24.7476 10.5262L28.702 18.2284L29.8595 20.5131L30.4773 22.629L30.708 23.2753L31.1076 23.2753L31.1076 22.9048L31.433 18.5659L32.0344 13.239L32.6193 6.38488L32.8211 4.45418L33.7768 2.14065L35.6757 0.889202L37.1586 1.59726L38.3778 3.34271L38.2089 4.47066L37.484 9.18007L36.0629 16.557L35.1361 21.497L35.6757 21.497L36.2935 20.8795L38.7938 17.5615L42.9953 12.3128L44.849 10.2298L47.0115 7.92862L48.3996 6.8336L51.0235 6.8336L52.9554 9.70288L52.0903 12.6668L49.3882 16.0919L47.1474 18.9941L43.9345 23.3165L41.9285 26.7745L42.1138 27.0503L42.5917 27.005L49.8495 25.4613L53.771 24.7532L58.4503 23.9505L60.5675 24.9384L60.7982 25.9429L59.9661 27.9971L54.9614 29.2321L49.0916 30.4053L40.3509 32.4718L40.2438 32.5501L40.3673 32.7024L44.3052 33.0729L45.9899 33.1634L50.1132 33.1634L57.7912 33.7356L59.7972 35.0612L61 36.6831L60.7982 37.9181L57.7088 39.4907L53.5403 38.5027L43.8109 36.1892L40.4744 35.3576L40.0131 35.3576L40.0131 35.6334L42.7935 38.3504L47.8888 42.9487L54.2694 48.8766L54.5948 50.3421L53.7751 51.4989L52.91 51.3754L47.3039 47.16L45.1414 45.2622L40.2438 41.1415L39.9184 41.1415L39.9184 41.5737L41.047 43.2245L47.0074 52.1781L47.3163 54.9239L46.8838 55.8172L45.3391 56.3565L43.642 56.0477L40.1531 51.1531L36.553 45.6409L33.6491 40.701L33.2948 40.9027L31.5813 59.3492L30.778 60.2919L28.9244 61L27.3798 59.8268L26.5601 57.929L27.3798 54.1788L28.3683 49.2841L29.1716 45.3939L29.8965 40.561L30.329 38.9555L30.3002 38.8485L29.946 38.8938L26.3005 43.8955L20.7562 51.3836L16.3693 56.0765L15.319 56.4923L13.4983 55.5496L13.6672 53.8659L14.6846 52.3674L20.7562 44.6488L24.4181 39.8653L26.7825 37.1031L26.766 36.7037L26.626 36.7037L10.4996 47.1682L7.62859 47.5387L6.39286 46.3819L6.54527 44.4842L7.13018 43.8667L11.9784 40.5322L11.9619 40.5487L11.966 40.5651Z" fill="#D97757" transform="translate(20 20)" />
    </g>
    <g id="Group" transform="matrix(-0.559 -0.829 0.829 -0.559 261.4 187)">
      <line id="Line" x1="0" y1="0" x2="32.762" y2="0" fill="none" stroke-width="1" stroke="#BDBDBD" stroke-linecap="square" transform="matrix(1 0 0 1 37.919 0)" />
      <line id="Line" x1="0" y1="0" x2="32.762" y2="0" fill="none" stroke-width="1" stroke="#BDBDBD" stroke-linecap="square" transform="matrix(1 0 0 1 0 0.001)" />
      <line id="Line" x1="0" y1="0" x2="32.762" y2="0" fill="none" stroke-width="1" stroke="#BDBDBD" stroke-linecap="square" transform="matrix(1 0 0 1 75.838 0)" />
    </g>
    <g id="Group" transform="matrix(-0 1 -1 -0 163 109)">
      <line id="Line" x1="0" y1="0" x2="25.92" y2="0" fill="none" stroke-width="1" stroke="#BDBDBD" stroke-linecap="square" transform="translate(30 0)" />
      <line id="Line" x1="0" y1="0" x2="25.92" y2="0" fill="none" stroke-width="1" stroke="#BDBDBD" stroke-linecap="square" />
      <line id="Line" x1="0" y1="0" x2="25.92" y2="0" fill="none" stroke-width="1" stroke="#BDBDBD" stroke-linecap="square" transform="translate(60 0)" />
    </g>
    <g id="Group" transform="matrix(0.454 -0.891 0.891 0.454 72.57 195.828)">
      <line id="Line" x1="0" y1="0" x2="32.762" y2="0" fill="none" stroke-width="1" stroke="#BDBDBD" stroke-linecap="square" transform="matrix(1 0 0 1 37.919 0)" />
      <line id="Line" x1="0" y1="0" x2="32.762" y2="0" fill="none" stroke-width="1" stroke="#BDBDBD" stroke-linecap="square" transform="matrix(1 0 0 1 0 0.001)" />
      <line id="Line" x1="0" y1="0" x2="32.762" y2="0" fill="none" stroke-width="1" stroke="#BDBDBD" stroke-linecap="square" transform="matrix(1 0 0 1 75.838 0)" />
    </g>
    <g id="Group" transform="translate(112 0)">
      <path id="Oval" d="M0 50C0 22.3858 22.3858 0 50 0C77.6142 0 100 22.3858 100 50C100 77.6142 77.6142 100 50 100C22.3858 100 0 77.6142 0 50Z" fill="#DDDDDD" fill-rule="evenodd" />
    </g>
    <g id="Group" transform="translate(138 24)">
      <path id="Path" d="M29.681 0.395824C28.7065 0 27.471 0 25 0C22.5289 0 21.2934 0 20.3189 0.395824C19.0194 0.923598 17.9871 1.93591 17.4488 3.21004C17.2031 3.79168 17.107 4.4681 17.0693 5.45478C17.014 6.90477 16.2557 8.24691 14.9741 8.97242C13.6926 9.6979 12.128 9.67081 10.8197 8.99278C9.92941 8.53138 9.28391 8.27481 8.64733 8.19265C7.25286 8.01263 5.84257 8.38316 4.72673 9.22272C3.88983 9.85239 3.27207 10.9015 2.03657 12.9998C0.801072 15.0981 0.183336 16.1473 0.0456519 17.1728C-0.137953 18.5401 0.239942 19.9229 1.09618 21.0171C1.48699 21.5166 2.03623 21.9362 2.88868 22.4614C4.14186 23.2336 4.9482 24.5489 4.94812 26C4.94804 27.4511 4.14173 28.7661 2.88868 29.5381C2.0361 30.0635 1.48676 30.4834 1.09591 30.9829C0.239678 32.077 -0.13819 33.4597 0.0453891 34.827C0.183073 35.8524 0.800836 36.9018 2.03631 39C3.27181 41.0982 3.88957 42.1476 4.72646 42.777C5.8423 43.6166 7.25259 43.9871 8.64707 43.8072C9.28362 43.725 9.92906 43.4684 10.8193 43.0071C12.1277 42.329 13.6924 42.302 14.974 43.0274C16.2556 43.7531 17.014 45.0952 17.0693 46.5455C17.107 47.5319 17.2031 48.2084 17.4488 48.7901C17.9871 50.064 19.0194 51.0765 20.3189 51.6043C21.2934 52 22.5289 52 25 52C27.471 52 28.7065 52 29.681 51.6043C30.9805 51.0765 32.0129 50.064 32.551 48.7901C32.7968 48.2084 32.8931 47.5319 32.9307 46.5452C32.986 45.0952 33.7442 43.7531 35.0257 43.0274C36.3073 42.3018 37.8721 42.329 39.1805 43.0071C40.0707 43.4684 40.716 43.7247 41.3526 43.8069C42.7471 43.9871 44.1573 43.6166 45.2731 42.777C46.1102 42.1473 46.7278 41.0982 47.9634 38.9998C49.1989 36.9015 49.8165 35.8524 49.9544 34.827C50.1378 33.4597 49.7599 32.0767 48.9039 30.9826C48.5128 30.4832 47.9636 30.0633 47.111 29.5381C45.8581 28.7661 45.0518 27.4508 45.0518 25.9997C45.0518 24.5487 45.8581 23.2339 47.111 22.4619C47.9639 21.9365 48.5131 21.5168 48.9042 21.0171C49.7602 19.9231 50.1381 18.5403 49.9547 17.1729C49.8168 16.1474 49.1992 15.0983 47.9636 13C46.7281 10.9017 46.1105 9.85257 45.2734 9.2229C44.1576 8.38334 42.7473 8.01281 41.3529 8.19284C40.7163 8.275 40.0707 8.53154 39.1807 8.99288C37.8723 9.67094 36.3076 9.69805 35.026 8.9725C33.7444 8.24697 32.986 6.90472 32.9305 5.45465C32.8929 4.46805 32.7968 3.79166 32.551 3.21004C32.0129 1.93591 30.9805 0.923598 29.681 0.395824C29.681 0.395824 29.681 0.395824 29.681 0.395824Z" fill="#1C274C" fill-rule="evenodd" fill-opacity="0.5" />
      <path id="Path" d="M15.9096 7.8C15.9096 12.1079 12.3483 15.6 7.95486 15.6C3.56145 15.6 0 12.1079 0 7.8C0 3.49206 3.56145 0 7.95486 0C12.3483 0 15.9096 3.49206 15.9096 7.8C15.9096 7.8 15.9096 7.8 15.9096 7.8Z" fill="#1C274C" transform="translate(17.053 18.174)" />
    </g>
  </g>
</svg>