<?xml version="1.0" encoding="utf-8"?>
<svg width="256" height="188" viewBox="0 0 256 188" fill="none" xmlns="http://www.w3.org/2000/svg">
  <defs>
    <radialGradient id="gradient_1" gradientUnits="userSpaceOnUse" cx="0" cy="0" r="1" gradientTransform="matrix(60.497 20.457 -163.876 484.621 5.955 24.386)">
      <stop offset="0.067" stop-color="#9168C0" />
      <stop offset="0.343" stop-color="#5684D1" />
      <stop offset="0.672" stop-color="#1BA1E3" />
    </radialGradient>
  </defs>
  <g id="Group">
    <path id="Oval" d="M0 50C0 22.3858 22.3858 0 50 0C77.6142 0 100 22.3858 100 50C100 77.6142 77.6142 100 50 100C22.3858 100 0 77.6142 0 50Z" fill="#DDDDDD" fill-rule="evenodd" transform="translate(0 88)" />
    <path id="Oval" d="M0 50C0 22.3858 22.3858 0 50 0C77.6142 0 100 22.3858 100 50C100 77.6142 77.6142 100 50 100C22.3858 100 0 77.6142 0 50Z" fill="#DDDDDD" fill-rule="evenodd" transform="translate(78 0)" />
    <path id="Oval" d="M0 50C0 22.3858 22.3858 0 50 0C77.6142 0 100 22.3858 100 50C100 77.6142 77.6142 100 50 100C22.3858 100 0 77.6142 0 50Z" fill="#DDDDDD" fill-rule="evenodd" transform="translate(156 88)" />
    <path id="Path" d="M60 30.06C43.8918 31.0485 31.0485 43.8918 30.06 60C30.06 60 29.94 60 29.94 60C28.9531 43.8911 16.1089 31.0469 0 30.06C0 30.06 0 29.94 0 29.94C16.1089 28.9531 28.9531 16.1089 29.94 0C29.94 0 30.06 0 30.06 0C31.0485 16.1082 43.8918 28.9515 60 29.94C60 29.94 60 30.06 60 30.06C60 30.06 60 30.06 60 30.06Z" fill="url(#gradient_1)" transform="translate(98 20)" />
    <path id="Shape" d="M46.7039 20.4616C47.1318 19.1927 47.3501 17.8642 47.3503 16.527C47.3503 14.3151 46.7531 12.1423 45.62 10.2327C43.3429 6.32208 39.1189 3.90768 34.5473 3.90768C33.6467 3.90769 32.7486 4.00154 31.8679 4.18767C29.472 1.52431 26.0353 7.62939e-05 22.4259 0C22.4259 0 22.3458 0 22.3458 0C22.3458 0 22.3157 0.000175476 22.3157 0.000175476C16.7787 0.000175476 11.8684 3.52525 10.1663 8.72199C6.60183 9.44229 3.52551 11.6447 1.72582 14.7646C0.59605 16.6856 0.00069046 18.867 0 21.0879C0.00154495 24.2136 1.17695 27.2233 3.29861 29.5386C2.8705 30.8074 2.65216 32.1359 2.65198 33.4732C2.65198 35.6848 3.24918 37.8577 4.38219 39.7673C7.1471 44.5169 12.7053 46.9603 18.1335 45.8122C20.5298 48.4755 23.9667 49.9998 27.5763 50C27.5763 50 27.6535 50 27.6535 50C27.6535 50 27.6861 49.9998 27.6861 49.9998C33.226 49.9998 38.1348 46.4746 39.8369 41.2731C43.4013 40.5526 46.4776 38.3502 48.2775 35.2303C49.4061 33.311 50.0003 31.1315 50 28.9126C50 25.7931 48.8261 22.7829 46.7056 20.4666C46.7056 20.4666 46.705 20.4659 46.705 20.4659C46.705 20.4659 46.7039 20.4616 46.7039 20.4616ZM27.6567 46.7282C27.6567 46.7282 27.6436 46.7282 27.6436 46.7282C25.4268 46.7275 23.2804 45.9602 21.5777 44.5598C21.6788 44.5061 21.7787 44.4502 21.8774 44.3922C21.8774 44.3922 31.9673 38.6419 31.9673 38.6419C32.4799 38.354 32.7965 37.817 32.7967 37.235C32.7967 37.235 32.7967 23.1908 32.7967 23.1908C32.7967 23.1908 37.0614 25.6204 37.0614 25.6204C37.1069 25.6427 37.138 25.686 37.1444 25.7358C37.1444 25.7358 37.1444 37.3585 37.1444 37.3585C37.1386 42.5259 32.8945 46.7177 27.6567 46.7282C27.6567 46.7282 27.6567 46.7282 27.6567 46.7282ZM7.25317 38.1304C6.41974 36.7085 5.98064 35.0952 5.98009 33.4527C5.98009 32.917 6.0275 32.3799 6.11985 31.8521C6.19486 31.8964 6.32578 31.9753 6.41972 32.0286C6.41972 32.0286 16.5096 37.7788 16.5096 37.7788C17.0218 38.0738 17.6553 38.0737 18.1673 37.7785C18.1673 37.7785 30.486 30.7606 30.486 30.7606L30.486 35.6199C30.486 35.6199 30.4862 35.6283 30.4862 35.6283C30.4862 35.6757 30.4636 35.7204 30.4252 35.7489C30.4252 35.7489 20.2252 41.5594 20.2252 41.5594C18.782 42.3789 17.1461 42.8105 15.4809 42.8109C12.0883 42.8105 8.95296 41.0266 7.2532 38.1298C7.2532 38.1298 7.2532 38.1303 7.2532 38.1303C7.2532 38.1303 7.25317 38.1304 7.25317 38.1304ZM4.59864 16.3977C5.70683 14.4986 7.45665 13.0444 9.54186 12.2898C9.54186 12.3755 9.53691 12.5273 9.53691 12.6328C9.53691 12.6328 9.53691 24.1334 9.53691 24.1334C9.53691 24.1334 9.53673 24.1429 9.53673 24.1429C9.53673 24.7239 9.85278 25.2606 10.3647 25.5484C10.3647 25.5484 22.6833 32.5652 22.6833 32.5652C22.6833 32.5652 18.4188 34.9948 18.4188 34.9948C18.376 35.0226 18.3221 35.0274 18.2749 35.0077C18.2749 35.0077 8.07394 29.1924 8.07394 29.1924C5.1391 27.5149 3.33208 24.4221 3.3317 21.0757C3.33227 19.4344 3.76915 17.8215 4.59876 16.3984C4.59876 16.3984 4.59822 16.3979 4.59822 16.3979C4.59822 16.3979 4.59864 16.3977 4.59864 16.3977ZM39.6378 24.4426L27.3192 17.4249C27.3192 17.4249 31.5839 14.9962 31.5839 14.9962C31.6266 14.9684 31.6806 14.9635 31.7277 14.9833C31.7277 14.9833 41.9286 20.7938 41.9286 20.7938C44.8659 22.4686 46.6754 25.5616 46.6761 28.9088C46.6761 32.8343 44.1934 36.3468 40.4605 37.7026C40.4605 37.7026 40.4605 25.858 40.4605 25.858C40.461 25.8537 40.461 25.8491 40.461 25.8448C40.4607 25.2653 40.1467 24.7306 39.6375 24.4424C39.6375 24.4424 39.6378 24.4426 39.6378 24.4426ZM43.8826 18.1393C43.7834 18.0794 43.6835 18.0206 43.5829 17.963C43.5829 17.963 33.493 12.2126 33.493 12.2126C33.2414 12.068 32.9555 11.9917 32.6643 11.9916C32.3732 11.9917 32.0872 12.068 31.8357 12.2126C31.8357 12.2126 19.5168 19.2305 19.5168 19.2305L19.5168 14.3711C19.5168 14.3711 19.5166 14.3628 19.5166 14.3628C19.5166 14.3153 19.5394 14.2706 19.5778 14.2421C19.5778 14.2421 29.7778 8.43655 29.7778 8.43655C31.2205 7.61591 32.8566 7.18388 34.5219 7.1838C39.7665 7.1838 44.0195 11.38 44.0195 16.5544C44.0193 17.0856 43.9734 17.6156 43.8826 18.139C43.8826 18.139 43.8826 18.1395 43.8826 18.1395C43.8826 18.1395 43.8826 18.1393 43.8826 18.1393ZM17.1981 26.8002C17.1981 26.8002 12.9325 24.3707 12.9325 24.3707C12.887 24.3483 12.8559 24.305 12.8495 24.2553C12.8495 24.2553 12.8495 12.6324 12.8495 12.6324C12.8518 7.46079 17.1049 3.26807 22.3471 3.26807C24.5673 3.26852 26.7173 4.0359 28.424 5.43705C28.3472 5.47842 28.2133 5.55138 28.1243 5.60461C28.1243 5.60461 18.0344 11.3549 18.0344 11.3549C17.5219 11.6425 17.2053 12.1795 17.2052 12.7612C17.2052 12.7612 17.2052 12.7705 17.2052 12.7705L17.1981 26.8002L17.1981 26.8002ZM19.5149 21.8721L25.0014 18.7455L30.4879 21.87L30.4879 28.121L25.0014 31.2457L19.5149 28.121L19.5149 21.8721L19.5149 21.8721Z" fill="#000000" transform="translate(25 113)" />
    <path id="path147" d="M11.966 40.5651L23.9691 33.8345L24.171 33.2499L23.9691 32.9247L23.3842 32.9247L21.3782 32.8012L14.5199 32.6159L8.57188 32.3689L2.80923 32.0602L1.35931 31.7514L0 29.9607L0.140045 29.0674L1.35931 28.2482L3.1058 28.4005L6.96542 28.664L12.7569 29.0633L16.9584 29.3103L23.1824 29.9566L24.171 29.9566L24.311 29.5573L23.9733 29.3103L23.7096 29.0633L17.7163 25.0043L11.2287 20.7148L7.83043 18.2448L5.9933 16.9934L5.0665 15.8202L4.66695 13.2596L6.33519 11.4236L8.57599 11.5759L9.14854 11.7282L11.4182 13.4737L16.2664 17.2239L22.5975 21.8839L23.5243 22.6537L23.895 22.3903L23.9403 22.205L23.5243 21.5093L20.0807 15.2891L16.4064 8.96187L14.7711 6.33958C14.7711 6.33958 14.3386 4.76704 14.3386 4.76704C14.1862 4.12073 14.075 3.57734 14.075 2.91457C14.075 2.91457 15.9739 0.337563 15.9739 0.337563L17.0243 0L19.5576 0.337563L20.6244 1.2638L22.1979 4.86172L24.7477 10.5262L28.702 18.2284L29.8595 20.5131L30.4773 22.629L30.708 23.2753L31.1076 23.2753L31.1076 22.9048L31.433 18.5659L32.0344 13.239L32.6193 6.38487L32.8211 4.45419L33.7768 2.14065L35.6757 0.889206L37.1586 1.59726L38.3778 3.3427L38.2089 4.47066L37.484 9.18007L36.0629 16.557L35.1361 21.497L35.6757 21.497L36.2935 20.8795L38.7939 17.5615L42.9953 12.3128L44.849 10.2298L47.0115 7.92862L48.3996 6.8336L51.0235 6.8336L52.9554 9.70287L52.0903 12.6668L49.3882 16.0919L47.1474 18.9941L43.9345 23.3165L41.9285 26.7745L42.1138 27.0503L42.5917 27.005L49.8495 25.4613L53.771 24.7532L58.4503 23.9505L60.5675 24.9384L60.7982 25.9429L59.9661 27.9971L54.9614 29.2321L49.0916 30.4053L40.3509 32.4718L40.2438 32.5501L40.3673 32.7024L44.3052 33.0729L45.9899 33.1634L50.1132 33.1634L57.7912 33.7357L59.7972 35.0612L61 36.6831L60.7982 37.9181L57.7088 39.4907L53.5403 38.5027L43.8109 36.1892L40.4744 35.3576L40.0131 35.3576L40.0131 35.6334L42.7935 38.3504L47.8889 42.9487L54.2694 48.8766L54.5948 50.3421L53.7751 51.4989L52.91 51.3754L47.3039 47.1599L45.1414 45.2622L40.2438 41.1415L39.9184 41.1415L39.9184 41.5737L41.047 43.2245L47.0074 52.1781L47.3163 54.9239L46.8838 55.8172L45.3391 56.3565L43.642 56.0477L40.1531 51.1531L36.553 45.6409L33.649 40.701L33.2948 40.9027L31.5813 59.3492L30.778 60.2919L28.9244 61L27.3798 59.8268L26.5601 57.929L27.3798 54.1788L28.3683 49.2841L29.1716 45.3939L29.8965 40.561L30.329 38.9556L30.3002 38.8485L29.946 38.8938L26.3005 43.8955L20.7562 51.3836L16.3694 56.0765L15.319 56.4923L13.4983 55.5496L13.6672 53.8659L14.6846 52.3674L20.7562 44.6488L24.4181 39.8653L26.7825 37.1031L26.766 36.7038L26.626 36.7038L10.4996 47.1682L7.62859 47.5387L6.39285 46.3819L6.54526 44.4842L7.13017 43.8667L11.9784 40.5322L11.9619 40.5487L11.966 40.5651Z" fill="#D97757" transform="translate(176 108)" />
  </g>
</svg>